<svg width="76" height="50" xmlns="http://www.w3.org/2000/svg" xmlns:xlink="http://www.w3.org/1999/xlink" xml:space="preserve" overflow="hidden"><defs><clipPath id="clip0"><rect x="232" y="2036" width="76" height="50"/></clipPath></defs><g clip-path="url(#clip0)" transform="translate(-232 -2036)"><path d="M74.5857 16.0641 7.22987 16.0641C4.84663 16.0666 2.91525 17.998 2.91279 20.3812L2.91279 61.435C2.91525 63.8183 4.84663 65.7497 7.22987 65.7521L74.5857 65.7521C76.9692 65.75 78.901 63.8185 78.9034 61.435L78.9034 20.3812C78.901 17.9977 76.9692 16.0662 74.5857 16.0641ZM52.8507 40.9081 76.5646 19.7695C76.6297 19.967 76.6642 20.1733 76.6669 20.3812L76.6669 61.435C76.6642 61.643 76.6297 61.8492 76.5646 62.0467ZM74.5832 18.3013C74.6624 18.3046 74.7413 18.3125 74.8197 18.3249L42.2849 47.3249C41.4973 48.028 40.3074 48.028 39.5198 47.3249L6.99401 18.3249C7.07211 18.3125 7.15086 18.3046 7.22987 18.3013ZM5.25222 62.0467C5.18713 61.8492 5.15264 61.643 5.14995 61.435L5.14995 20.3812C5.15264 20.1733 5.18713 19.967 5.25222 19.7695L28.9655 40.9081ZM7.22987 63.5169C7.15086 63.5135 7.07211 63.5056 6.99401 63.4932L30.644 42.4083 38.0375 48.9951C39.6732 50.454 42.143 50.454 43.7787 48.9951L51.1703 42.4064 74.8203 63.4913C74.742 63.5037 74.663 63.5116 74.5838 63.515Z" fill="#009444" transform="matrix(1 0 0 1.00371 229.06 2019.97)"/></g></svg>